<svg xmlns="http://www.w3.org/2000/svg" viewBox="0 0 2000 2000">
  <defs>
    <style>
      .cls-1 {
        fill: #fff;
      }
    </style>
  </defs>
  <title>Isotipo Afordin</title>
  <g id="Capa_4" data-name="Capa 4" transform="matrix(1.2914606,0,0,1.2914606,-331.23391,-295.88004)">
    <path
      class="cls-1"
      d="M 1246.12,789.63 A 186.73,186.73 0 0 0 894.21,789 L 739.49,1222.34 H 963.9 l 104.74,-338.69 136.6,460.35 64,188.77 a 320.45,320.45 0 0 0 306.1,225.35 h 12.51 z m -599.4,692.66 H 881.61 L 926.3,1344 950.05,1267.13 H 723.49 Z m -98.46,275.86 H 559 a 320.69,320.69 0 0 0 303.78,-218 l 2.51,-7.4 1.84,-5.69 H 630.72 Z"
      id="path1"
    />
    <path
      class="cls-1"
      d="m 1068,528.69 v 0 A 143.42,143.42 0 0 0 924.62,385.27 v 0 A 143.42,143.42 0 0 0 1068,241.85 v 0 a 143.42,143.42 0 0 0 143.41,143.42 v 0 A 143.42,143.42 0 0 0 1068,528.69 Z"
      id="path2"
    />
    <path
      class="cls-1"
      d="m 1068.06,1267.16 c 0,107.39 -77.4,196.67 -179.46,215.13 H 412.14 a 215.16,215.16 0 0 1 215.13,-215.13 z"
      id="path3"
    />
  </g>
</svg>
