<svg width="218" height="33" viewBox="0 0 218 33" fill="none" xmlns="http://www.w3.org/2000/svg">
  <path
    d="M84.3015 20.831C84.3015 19.6827 83.8521 18.5814 83.0522 17.7695C82.2522 16.9575 81.1672 16.5014 80.0359 16.5014C81.1672 16.5014 82.2522 16.0452 83.0522 15.2332C83.8521 14.4213 84.3015 13.32 84.3015 12.1717C84.3015 13.32 84.7509 14.4213 85.5509 15.2332C86.3508 16.0452 87.4358 16.5014 88.5671 16.5014C87.4358 16.5014 86.3508 16.9575 85.5509 17.7695C84.7509 18.5814 84.3015 19.6827 84.3015 20.831Z"
    fill="white"
    fill-opacity="0.9"
  />
  <path
    d="M178.583 33.0014V6.60135C178.583 4.85092 179.268 3.17219 180.488 1.93445C181.707 0.696708 183.361 0.00135301 185.086 0.00135301V26.4014C185.086 28.1518 184.401 29.8305 183.181 31.0683C181.962 32.306 180.308 33.0014 178.583 33.0014Z"
    fill="white"
    fill-opacity="0.9"
  />
  <path
    d="M68.0456 0.00135301C68.0456 0.868533 67.8772 1.72721 67.5501 2.52831C67.223 3.32942 66.7436 4.05723 66.1392 4.67017C65.5349 5.28311 64.8174 5.76915 64.0279 6.10051C63.2384 6.43187 62.3923 6.60206 61.5379 6.60135H48.5372V13.2014H61.5379C61.5379 14.9518 60.8528 16.6305 59.6334 17.8683C58.414 19.106 56.7601 19.8014 55.0355 19.8014H48.5372V26.4014C48.5373 27.2681 48.3693 28.1264 48.0426 28.9273C47.7158 29.7281 47.2369 30.4558 46.6331 31.0687C46.0292 31.6816 45.3123 32.1677 44.5233 32.4993C43.7344 32.8309 42.8887 33.0015 42.0348 33.0014V6.60135C42.0348 4.85092 42.7199 3.17219 43.9393 1.93445C45.1587 0.696708 46.8126 0.00135301 48.5372 0.00135301H68.0456Z"
    fill="white"
    fill-opacity="0.9"
  />
  <path
    d="M121.716 19.8014C123.07 19.8014 124.411 19.5307 125.662 19.0047C126.913 18.4788 128.049 17.7079 129.007 16.7361C129.964 15.7642 130.724 14.6105 131.242 13.3408C131.76 12.071 132.027 10.7101 132.027 9.33579C132.027 6.85979 131.058 4.48519 129.333 2.73439C127.608 0.98359 125.269 0 122.829 0H107.056C107.055 0.866886 107.222 1.72546 107.549 2.52633C107.876 3.3272 108.356 4.05455 108.961 4.66654C109.564 5.28051 110.28 5.76741 111.069 6.09923C111.858 6.43105 112.704 6.60124 113.558 6.6H122.2C123.988 6.6 125.495 8.03149 125.525 9.84723C125.532 10.2852 125.453 10.7202 125.293 11.1269C125.133 11.5337 124.894 11.9039 124.592 12.2162C124.289 12.5284 123.928 12.7763 123.53 12.9455C123.132 13.1146 122.705 13.2016 122.273 13.2014H113.558C111.834 13.2014 110.18 13.8967 108.96 15.1344C107.741 16.3722 107.056 18.0509 107.056 19.8014C108.789 19.801 110.505 20.1473 112.106 20.8206C113.707 21.4938 115.162 22.4808 116.387 23.7251L119.027 26.4054C121.088 28.497 123.535 30.1561 126.227 31.2879C128.92 32.4196 131.805 33.0019 134.72 33.0014L121.716 19.8014Z"
    fill="white"
    fill-opacity="0.9"
  />
  <path
    d="M95.796 4.83432C93.1367 2.13543 89.6378 0.455927 85.8953 0.0819693C82.1529 -0.291989 78.3985 0.662736 75.2718 2.78347C72.1451 4.90421 69.8395 8.05975 68.748 11.7124C67.6565 15.3651 67.8465 19.2889 69.2857 22.8154C70.7249 26.3418 73.3242 29.2526 76.6407 31.0519C79.9573 32.8511 83.7858 33.4275 87.4741 32.6828C91.1624 31.9382 94.4822 29.9185 96.8678 26.9679C99.2535 24.0173 100.557 20.3184 100.557 16.5014C100.56 14.3341 100.141 12.1878 99.3238 10.1855C98.5066 8.18333 97.3077 6.36475 95.796 4.83432ZM91.1945 23.5059C89.5988 25.1248 87.4994 26.1321 85.2541 26.3561C83.0087 26.5801 80.7563 26.0069 78.8806 24.7343C77.0049 23.4617 75.622 21.5683 74.9674 19.3768C74.3129 17.1852 74.4271 14.8311 75.2908 12.7155C76.1545 10.6 77.7142 8.85378 79.704 7.77451C81.6939 6.69523 83.9909 6.34965 86.2037 6.79663C88.4165 7.24361 90.4081 8.4555 91.8392 10.2258C93.2704 11.9962 94.0525 14.2154 94.0524 16.5054C94.0535 17.8058 93.8016 19.0936 93.3112 20.2949C92.8207 21.4962 92.1014 22.5874 91.1945 23.5059Z"
    fill="white"
    fill-opacity="0.9"
  />
  <path
    d="M172.08 16.3715C172.149 25.5178 164.643 33.0014 155.632 33.0014H139.568V26.4C139.568 24.6499 140.253 22.9715 141.472 21.7341C142.691 20.4966 144.345 19.8014 146.069 19.8014V26.4014H155.824C157.108 26.4014 158.379 26.144 159.565 25.6439C160.751 25.1438 161.828 24.411 162.735 23.4874C163.641 22.5638 164.358 21.4676 164.846 20.2618C165.334 19.056 165.582 17.7643 165.577 16.4608C165.556 10.9851 161.074 6.60135 155.678 6.60135H139.566C139.566 4.85092 140.251 3.17219 141.471 1.93445C142.69 0.696708 144.344 0.00135302 146.069 0.00135302H155.824C160.114 0.00120674 164.23 1.72172 167.276 4.78814C170.322 7.85456 172.051 12.0184 172.086 16.3728L172.08 16.3715Z"
    fill="white"
    fill-opacity="0.9"
  />
  <path
    d="M211.68 6.46605V20.2587L198.723 0.0514145H198.362C197.473 0.0512368 196.592 0.228899 195.771 0.574252C194.949 0.919605 194.202 1.42588 193.574 2.06416C192.945 2.70244 192.446 3.46022 192.106 4.29421C191.765 5.1282 191.59 6.02206 191.591 6.92472V32.9513C192.421 32.9515 193.242 32.7857 194.009 32.4634C194.776 32.1411 195.473 31.6686 196.06 31.0729C196.647 30.4772 197.112 29.77 197.43 28.9916C197.747 28.2133 197.911 27.3791 197.91 26.5367V12.1947L211.234 32.9513C212.123 32.9515 213.004 32.7738 213.825 32.4285C214.647 32.0831 215.394 31.5768 216.022 30.9385C216.651 30.3003 217.15 29.5425 217.49 28.7085C217.83 27.8745 218.006 26.9806 218.005 26.078V0.0514145C217.175 0.0507034 216.353 0.216098 215.585 0.538145C214.818 0.860193 214.121 1.33258 213.533 1.9283C212.946 2.52403 212.48 3.23141 212.162 4.01003C211.844 4.78864 211.68 5.62321 211.68 6.46605Z"
    fill="white"
    fill-opacity="0.9"
  />
  <path
    d="M22.7809 1.03997C23.7167 1.71348 24.4241 2.66464 24.8058 3.76273L34.9686 33.0014H34.598C32.5637 33.0018 30.5827 32.3418 28.9444 31.1178C27.3061 29.8939 26.0964 28.17 25.4923 26.1984L23.5888 20.4995L19.5258 6.60135L16.4119 16.8247H9.73757L14.3391 3.74243C14.7249 2.64583 15.4358 1.69742 16.3742 1.02755C17.3126 0.357677 18.4323 -0.000778565 19.5795 0.00144589C20.7267 0.00367034 21.8451 0.366466 22.7809 1.03997Z"
    fill="white"
    fill-opacity="0.9"
  />
  <path
    d="M0 24.6722C0 22.9498 0.674115 21.2979 1.87405 20.0799C3.07398 18.862 4.70144 18.1777 6.3984 18.1777H19.5084C19.5087 19.7224 18.9753 21.2183 18.001 22.4049C17.0268 23.5916 15.6734 24.3939 14.1764 24.6722H0Z"
    fill="white"
    fill-opacity="0.9"
  />
  <path
    d="M4.36692 33.0014H4.04567L6.50238 26.0252H13.53L13.4753 26.1984L13.4007 26.4216C12.7619 28.3395 11.5468 30.0058 9.9263 31.1861C8.30579 32.3664 6.36147 33.0013 4.36692 33.0014Z"
    fill="white"
    fill-opacity="0.9"
  />
</svg>
