<svg width="326" height="231" viewBox="0 0 326 231" fill="none" xmlns="http://www.w3.org/2000/svg">
  <path
    d="M0 24C0 10.7452 10.7452 0 24 0H302C315.255 0 326 10.7452 326 24V231H0V24Z"
    fill="url(#paint0_linear_2596_477)"
  />
  <path
    d="M135.375 180.174V179.801C135.375 178.83 135.556 177.984 135.918 177.263C136.294 176.543 136.774 175.911 137.358 175.371C137.943 174.816 138.562 174.317 139.216 173.874C139.884 173.416 140.51 172.973 141.094 172.543C141.361 172.341 141.604 172.134 141.824 171.923C142.087 171.671 142.317 171.413 142.514 171.149C142.889 170.651 143.077 170.082 143.077 169.444C143.077 168.999 142.998 168.605 142.839 168.261C142.716 167.994 142.545 167.758 142.326 167.552C141.825 167.08 141.164 166.845 140.343 166.845C139.962 166.845 139.612 166.897 139.293 167C138.89 167.129 138.538 167.341 138.235 167.635C138.106 167.764 137.994 167.905 137.9 168.059C137.853 168.135 137.81 168.215 137.772 168.297C137.738 168.37 137.707 168.446 137.68 168.525C137.654 168.598 137.632 168.674 137.612 168.751C137.468 169.328 137.022 169.84 136.425 169.84C135.864 169.84 135.391 169.391 135.472 168.837C135.516 168.542 135.583 168.261 135.676 167.994C135.763 167.743 135.871 167.506 136.002 167.282C136.419 166.56 137.01 165.999 137.776 165.597C138.555 165.196 139.452 164.994 140.468 164.994C140.94 164.994 141.382 165.036 141.795 165.121C142.235 165.211 142.641 165.348 143.015 165.535C143.738 165.895 144.302 166.401 144.705 167.053C145.109 167.704 145.31 168.466 145.31 169.34C145.31 170.103 145.15 170.782 144.83 171.379C144.772 171.489 144.71 171.598 144.644 171.706L144.536 171.875C144.495 171.937 144.453 171.999 144.409 172.06C144.176 172.384 143.906 172.69 143.599 172.98C143.402 173.165 143.198 173.347 142.988 173.524C142.664 173.796 142.325 174.059 141.971 174.311L141.245 174.829L140.26 175.538C139.717 175.94 139.244 176.362 138.84 176.806C138.451 177.25 138.193 177.742 138.068 178.282H144.528C145.052 178.282 145.477 178.706 145.477 179.228C145.477 179.751 145.052 180.174 144.528 180.174H135.375Z"
    fill="black"
  />
  <path
    fill-rule="evenodd"
    clip-rule="evenodd"
    d="M152.286 179.447C153.12 180.043 154.094 180.341 155.208 180.341C156.293 180.341 157.239 180.05 158.046 179.468C158.196 179.359 158.34 179.241 158.477 179.114C158.971 178.658 159.384 178.085 159.716 177.397C159.797 177.227 159.874 177.051 159.946 176.869C160.405 175.732 160.634 174.331 160.634 172.668C160.634 170.227 160.147 168.342 159.173 167.011C158.199 165.681 156.884 165.015 155.229 165.015C154.129 165.015 153.162 165.306 152.327 165.889C152.014 166.111 151.726 166.374 151.465 166.677C151.043 167.168 150.691 167.765 150.407 168.467C149.948 169.59 149.718 170.983 149.718 172.647C149.718 174.268 149.941 175.655 150.386 176.806C150.832 177.956 151.465 178.837 152.286 179.447ZM157.608 177.138C157.023 178.054 156.217 178.511 155.187 178.511C154.171 178.511 153.364 178.054 152.766 177.138C152.181 176.209 151.889 174.719 151.889 172.668C151.889 170.602 152.181 169.112 152.766 168.197C153.364 167.282 154.171 166.824 155.187 166.824C156.217 166.824 157.023 167.282 157.608 168.197C158.192 169.112 158.484 170.602 158.484 172.668C158.484 174.719 158.192 176.209 157.608 177.138Z"
    fill="black"
  />
  <path
    d="M164.783 180.174V179.801C164.783 178.83 164.963 177.984 165.325 177.263C165.701 176.543 166.181 175.911 166.766 175.371C166.876 175.265 166.989 175.162 167.102 175.061C167.227 174.949 167.352 174.841 167.48 174.735C167.848 174.428 168.229 174.141 168.623 173.874C169.291 173.416 169.917 172.973 170.501 172.543C170.574 172.488 170.645 172.432 170.714 172.376C170.959 172.179 171.183 171.976 171.386 171.77C171.585 171.567 171.764 171.36 171.921 171.149C172.019 171.019 172.104 170.884 172.177 170.745C172.239 170.625 172.292 170.5 172.336 170.373C172.435 170.081 172.484 169.772 172.484 169.444C172.484 168.654 172.234 168.023 171.733 167.552C171.232 167.08 170.571 166.845 169.75 166.845C169.613 166.845 169.48 166.852 169.351 166.865C169.206 166.88 169.066 166.903 168.932 166.935C168.431 167.053 168.002 167.286 167.642 167.635C167.338 167.938 167.13 168.31 167.02 168.751C166.875 169.328 166.429 169.84 165.833 169.84C165.271 169.84 164.798 169.391 164.879 168.837C164.963 168.264 165.14 167.745 165.409 167.282C165.826 166.56 166.418 165.999 167.183 165.597C167.962 165.196 168.859 164.994 169.875 164.994C170.849 164.994 171.698 165.174 172.422 165.535C173.145 165.895 173.709 166.401 174.112 167.053C174.516 167.704 174.717 168.466 174.717 169.34C174.717 170.103 174.557 170.782 174.238 171.379C173.931 171.96 173.521 172.494 173.006 172.98C172.505 173.451 171.962 173.895 171.378 174.311C170.794 174.726 170.223 175.135 169.667 175.538C169.124 175.94 168.651 176.362 168.247 176.806C168.067 177.012 167.915 177.227 167.791 177.453C167.648 177.716 167.542 177.992 167.475 178.282H173.935C174.459 178.282 174.885 178.706 174.885 179.228C174.885 179.502 174.768 179.747 174.583 179.92C174.48 180.016 174.355 180.089 174.217 180.132C174.128 180.159 174.033 180.174 173.935 180.174H164.783Z"
    fill="black"
  />
  <path
    fill-rule="evenodd"
    clip-rule="evenodd"
    d="M185.662 179.104C185.662 179.696 186.143 180.174 186.737 180.174C187.15 180.174 187.508 179.943 187.688 179.602C187.767 179.453 187.812 179.284 187.812 179.104V176.494H188.97C189.244 176.494 189.49 176.369 189.652 176.175C189.78 176.022 189.857 175.824 189.857 175.61C189.857 175.511 189.841 175.415 189.81 175.326C189.777 175.227 189.725 175.135 189.661 175.055C189.498 174.855 189.249 174.726 188.97 174.726H187.812V167.012C187.812 166.001 186.989 165.181 185.975 165.181C185.373 165.181 184.81 165.475 184.467 165.966L178.501 174.504C178.434 174.6 178.381 174.704 178.343 174.813C178.297 174.946 178.273 175.086 178.273 175.228C178.273 175.377 178.299 175.52 178.347 175.652C178.417 175.851 178.536 176.026 178.69 176.164C178.915 176.369 179.215 176.494 179.544 176.494H185.662V179.104ZM185.662 174.726H180.465L185.662 167.344V174.726Z"
    fill="black"
  />
  <path
    d="M175.468 105.574C177.615 106.712 180.098 107.282 182.918 107.282C185.298 107.282 187.432 106.868 189.32 106.04C191.234 105.185 192.786 103.995 193.976 102.468C194.443 101.869 194.837 101.232 195.156 100.557C195.966 98.8458 194.45 97.1496 192.558 97.1496C191.056 97.1496 189.844 98.2904 188.929 99.4807C188.562 99.9585 188.11 100.385 187.574 100.76C186.281 101.667 184.728 102.118 182.918 102.118C180.486 102.118 178.546 101.342 177.098 99.7902C175.675 98.2371 174.964 95.8948 174.964 92.7633C174.964 89.658 175.675 87.3288 177.098 85.7757C178.546 84.2226 180.486 83.4465 182.918 83.4465C184.78 83.4465 186.332 83.9131 187.574 84.8444C188.1 85.2203 188.546 85.643 188.912 86.1123C189.819 87.2783 191.025 88.377 192.502 88.377C194.416 88.377 195.941 86.6491 195.109 84.9248C194.99 84.677 194.861 84.4349 194.722 84.1983C194.498 83.8177 194.25 83.4503 193.976 83.0968C192.812 81.5708 191.286 80.3927 189.398 79.5652C187.509 78.7105 185.349 78.2832 182.918 78.2832C180.098 78.2832 177.615 78.8527 175.468 79.9915C173.347 81.1304 171.691 82.7864 170.502 84.9604C169.312 87.1091 168.717 89.7095 168.717 92.7633C168.717 95.8172 169.312 98.4306 170.502 100.605C171.691 102.779 173.347 104.435 175.468 105.574Z"
    fill="black"
  />
  <path
    fill-rule="evenodd"
    clip-rule="evenodd"
    d="M180.034 146.577C177.188 146.577 174.692 146.008 172.545 144.87C170.424 143.73 168.768 142.074 167.578 139.9C166.414 137.726 165.832 135.112 165.832 132.059C165.832 128.98 166.414 126.365 167.578 124.217C168.768 122.069 170.424 120.426 172.545 119.287C174.692 118.148 177.188 117.579 180.034 117.579C182.905 117.579 185.401 118.148 187.522 119.287C189.643 120.426 191.286 122.082 192.45 124.256C193.64 126.404 194.235 129.005 194.235 132.059C194.235 135.139 193.64 137.765 192.45 139.939C191.286 142.087 189.63 143.73 187.483 144.87C185.362 146.008 182.879 146.577 180.034 146.577ZM180.034 141.415C182.491 141.415 184.431 140.638 185.854 139.085C187.302 137.506 188.026 135.165 188.026 132.059C188.026 128.953 187.302 126.624 185.854 125.071C184.405 123.518 182.465 122.742 180.034 122.742C177.602 122.742 175.662 123.518 174.213 125.071C172.791 126.624 172.079 128.953 172.079 132.059C172.079 135.19 172.791 137.532 174.213 139.085C175.662 140.638 177.602 141.415 180.034 141.415Z"
    fill="black"
  />
  <path
    d="M95.2442 142.31C94.6019 144.238 96.0358 146.228 98.0667 146.228C99.3538 146.228 100.495 145.4 100.895 144.176L102.126 140.406H109.454L107.636 135.786H103.523L105.928 128.565L107.485 123.513C107.505 123.448 107.566 123.402 107.636 123.402C107.705 123.402 107.766 123.448 107.786 123.513L109.343 128.565L114.382 144.169C114.778 145.396 115.92 146.228 117.209 146.228C119.238 146.228 120.67 144.24 120.029 142.315L113.253 121.98C112.447 119.56 110.184 117.928 107.636 117.928C105.087 117.928 102.824 119.56 102.018 121.98L95.2442 142.31Z"
    fill="black"
  />
  <path
    d="M143.965 117.928C138.281 117.928 133.674 122.539 133.674 128.225V143.201C133.674 144.872 135.029 146.228 136.7 146.228C138.372 146.228 139.727 144.872 139.727 143.201V128.24C139.727 125.396 142.03 123.092 144.872 123.092H151.619C153.044 123.092 154.199 121.936 154.199 120.51C154.199 119.084 153.044 117.928 151.619 117.928H143.965Z"
    fill="black"
  />
  <path
    d="M152.647 132.66C152.647 131.298 151.544 130.195 150.183 130.195H143.762L141.943 135.126H150.183C151.544 135.126 152.647 134.021 152.647 132.66Z"
    fill="black"
  />
  <path
    fill-rule="evenodd"
    clip-rule="evenodd"
    d="M211.025 146.228C209.354 146.228 207.999 144.872 207.999 143.201V128.225C207.999 122.539 212.607 117.928 218.291 117.928H221.967C225.278 117.928 227.749 118.627 229.378 120.025C231.008 121.422 231.823 123.428 231.823 126.042C231.823 127.724 231.383 129.186 230.503 130.428C229.65 131.644 228.46 132.434 226.934 132.796V133.068C229.727 133.612 231.124 135.436 231.124 138.541V143.201C231.124 144.872 229.769 146.228 228.098 146.228C226.426 146.228 225.071 144.872 225.071 143.201V139.589C225.071 138.373 224.774 137.442 224.179 136.795C223.61 136.148 222.472 135.824 220.764 135.824H214.052V143.201C214.052 144.872 212.697 146.228 211.025 146.228ZM221.075 131.01H214.052V128.085C214.052 125.241 216.356 122.936 219.198 122.936H221.075C222.446 122.936 223.545 123.234 224.373 123.828C225.226 124.424 225.653 125.434 225.653 126.857C225.653 128.047 225.304 129.044 224.606 129.845C223.907 130.622 222.73 131.01 221.075 131.01Z"
    fill="black"
  />
  <path
    d="M96.9652 106.933C95.2937 106.933 93.9388 105.577 93.9388 103.905V81.6615C93.9388 79.9887 95.2937 78.6329 96.9652 78.6329C98.6368 78.6329 99.9917 79.9887 99.9917 81.6615V90.0077H113.301V81.6615C113.301 79.9887 114.656 78.6329 116.327 78.6329C117.999 78.6329 119.353 79.9887 119.353 81.6615V103.905C119.353 105.577 117.999 106.933 116.327 106.933C114.656 106.933 113.301 105.577 113.301 103.905V95.1701H99.9917V103.905C99.9917 105.577 98.6368 106.933 96.9652 106.933Z"
    fill="black"
  />
  <path
    d="M209.822 81.6615C209.822 79.9887 211.177 78.6329 212.849 78.6329C214.52 78.6329 215.875 79.9887 215.875 81.6615V92.0256L226.362 79.5867C226.872 78.9817 227.622 78.6329 228.413 78.6329C230.727 78.6329 231.956 81.3679 230.42 83.0996L223.946 90.3949L231.583 102.319C232.861 104.313 231.429 106.933 229.061 106.933C228.027 106.933 227.067 106.4 226.519 105.523L219.794 94.7428L215.875 99.1301V103.905C215.875 105.577 214.52 106.933 212.849 106.933C211.177 106.933 209.822 105.577 209.822 103.905V81.6615Z"
    fill="black"
  />
  <path
    d="M135.84 106.933C133.81 106.933 132.376 104.942 133.018 103.015L139.791 82.6845C140.598 80.2646 142.86 78.6329 145.409 78.6329C147.958 78.6329 150.221 80.2646 151.027 82.6845L157.802 103.02C158.444 104.945 157.011 106.933 154.983 106.933C153.694 106.933 152.552 106.101 152.155 104.874L147.117 89.27L145.56 84.2179C145.54 84.1516 145.478 84.1067 145.409 84.1067C145.34 84.1067 145.279 84.1516 145.259 84.2179L143.702 89.27L141.296 96.4895H145.409L147.228 101.11H139.9L138.668 104.881C138.269 106.105 137.127 106.933 135.84 106.933Z"
    fill="black"
  />
  <path
    fill-rule="evenodd"
    clip-rule="evenodd"
    d="M180.579 44.9821H182.533C183.607 44.9821 184.486 45.8635 184.486 46.9391V52.8089C184.486 53.8844 183.607 54.7658 182.533 54.7658H180.579V56.7218C180.579 58.8936 178.841 60.6347 176.673 60.6347H149.327C148.291 60.6347 147.298 60.2228 146.565 59.4894C145.833 58.7551 145.421 57.7596 145.421 56.7218V54.7658H143.468C142.394 54.7658 141.515 53.8844 141.515 52.8089V46.9391C141.515 45.8635 142.394 44.9821 143.468 44.9821H145.421C145.421 37.4108 151.535 31.2865 159.094 31.2865H161.047V28.8017C159.875 28.1371 159.094 26.8646 159.094 25.4176C159.094 25.3177 159.097 25.2178 159.105 25.1179C159.112 25.0264 159.122 24.9359 159.135 24.8454C159.181 24.5334 159.264 24.228 159.383 23.9358C159.449 23.7727 159.527 23.6134 159.615 23.4598C159.958 22.8649 160.451 22.3691 161.044 22.0251C161.638 21.6819 162.312 21.5009 162.998 21.5C163.141 21.5 163.283 21.5075 163.424 21.5226C163.961 21.582 164.481 21.7517 164.952 22.0232C165.313 22.2324 165.638 22.4973 165.913 22.8056C166.091 23.0045 166.248 23.2222 166.383 23.455C166.726 24.0498 166.906 24.7248 166.907 25.412C166.907 25.56 166.898 25.7079 166.882 25.8541C166.866 25.9889 166.844 26.1218 166.815 26.2537C166.73 26.644 166.585 27.021 166.384 27.3698C166.299 27.5169 166.205 27.6573 166.103 27.7912C166.015 27.9062 165.921 28.0155 165.822 28.1192C165.567 28.386 165.275 28.616 164.954 28.8017V31.2865H166.907C174.466 31.2865 180.579 37.4108 180.579 44.9821ZM157.668 51.3808C158.304 50.7426 158.304 49.7095 157.668 49.0713L156.973 48.3766C156.721 48.123 156.721 47.712 156.973 47.4585L157.668 46.7637C158.304 46.1256 158.304 45.0924 157.668 44.4543C157.031 43.817 155.999 43.817 155.363 44.4543L154.669 45.1499C154.416 45.4035 154.006 45.4035 153.753 45.1499L153.058 44.4543C152.422 43.817 151.39 43.817 150.753 44.4543C150.117 45.0924 150.117 46.1256 150.753 46.7637L151.448 47.4585C151.701 47.712 151.701 48.123 151.448 48.3766L150.753 49.0713C150.117 49.7095 150.117 50.7426 150.753 51.3808C151.39 52.018 152.422 52.018 153.058 51.3808L153.753 50.6851C154.006 50.4315 154.416 50.4315 154.669 50.6851L155.363 51.3808C155.999 52.018 157.031 52.018 157.668 51.3808ZM172.249 51.6655L176.088 47.8195C176.869 47.0371 176.869 45.7457 176.088 44.9821C175.287 44.1611 174.017 44.1611 173.216 44.9821L172.245 45.9417C171.993 46.1906 171.588 46.1906 171.336 45.9417L170.365 44.9821C169.564 44.1611 168.294 44.1611 167.493 44.9821C166.712 45.7457 166.712 47.0371 167.493 47.8195L171.332 51.6655C171.585 51.9181 171.995 51.9181 172.249 51.6655Z"
    fill="black"
  />
  <path
    d="M162.617 197.99C162.617 201.168 160.04 203.745 156.861 203.745C160.04 203.745 162.617 206.322 162.617 209.5C162.617 206.322 165.193 203.745 168.372 203.745C165.193 203.745 162.617 201.168 162.617 197.99Z"
    fill="black"
  />
  <defs>
    <linearGradient id="paint0_linear_2596_477" x1="0" y1="0" x2="217.941" y2="307.57" gradientUnits="userSpaceOnUse">
      <stop stop-color="#FC1C37" />
      <stop offset="1" stop-color="#AD40E1" />
    </linearGradient>
  </defs>
</svg>
