<svg width="418" height="303" viewBox="0 0 418 303" fill="none" xmlns="http://www.w3.org/2000/svg">
  <g filter="url(#filter0_d_1995_407)">
    <g clip-path="url(#clip0_1995_407)">
      <rect
        x="201.866"
        y="162.409"
        width="7"
        height="57.2636"
        transform="rotate(35.8848 201.866 162.409)"
        fill="url(#paint0_linear_1995_407)"
      />
      <rect
        x="230"
        y="165.237"
        width="7"
        height="57.2636"
        transform="rotate(-37.2505 230 165.237)"
        fill="url(#paint1_linear_1995_407)"
      />
      <rect
        x="169.106"
        y="137.207"
        width="7"
        height="57.2636"
        transform="rotate(87.3647 169.106 137.207)"
        fill="url(#paint2_linear_1995_407)"
      />
      <rect
        x="174.422"
        y="98.8809"
        width="7"
        height="57.2636"
        transform="rotate(138.845 174.422 98.8809)"
        fill="url(#paint3_linear_1995_407)"
      />
      <rect
        x="237.773"
        y="114.618"
        width="7"
        height="82.9692"
        transform="rotate(-135 237.773 114.618)"
        fill="url(#paint4_linear_1995_407)"
      />
      <rect
        x="225"
        y="142.993"
        width="7"
        height="82.9692"
        transform="rotate(-87.5057 225 142.993)"
        fill="url(#paint5_linear_1995_407)"
      />
      <rect x="21.75" y="34.5" width="44" height="44" stroke="#343638" />
      <rect x="21.75" y="78.5" width="44" height="44" stroke="#343638" />
      <rect x="21.75" y="122.5" width="44" height="44" stroke="#343638" />
      <rect x="65.75" y="34.5" width="44" height="44" stroke="#343638" />
      <rect x="-22.25" y="34.5" width="44" height="44" stroke="#343638" />
      <rect x="-22.25" y="78.5" width="44" height="44" stroke="#343638" />
      <rect x="-22.25" y="122.5" width="44" height="44" stroke="#343638" />
      <rect x="65.75" y="78.5" width="44" height="44" stroke="#343638" />
      <rect x="65.75" y="122.5" width="44" height="44" stroke="#57595B" />
      <rect x="109.75" y="34.5" width="44" height="44" stroke="#343638" />
      <rect x="109.75" y="78.5" width="44" height="44" stroke="#57595B" />
      <rect x="109.75" y="122.5" width="44" height="44" stroke="#343638" />
      <rect x="153.75" y="34.5" width="44" height="44" stroke="#343638" />
      <rect x="153.75" y="78.5" width="44" height="44" stroke="#3A3B3D" />
      <rect x="153.75" y="122.5" width="44" height="44" stroke="#343638" />
      <rect x="197.75" y="34.5" width="44" height="44" stroke="#57595B" />
      <rect x="197.75" y="78.5" width="44" height="44" stroke="#343638" />
      <rect x="197.75" y="122.5" width="44" height="44" stroke="#343638" />
      <rect x="241.75" y="34.5" width="44" height="44" stroke="#343638" />
      <rect x="241.75" y="78.5" width="44" height="44" stroke="#57595B" />
      <rect x="241.75" y="122.5" width="44" height="44" stroke="#57595B" />
      <rect x="285.75" y="34.5" width="44" height="44" stroke="#343638" />
      <rect x="285.75" y="78.5" width="44" height="44" stroke="#57595B" />
      <rect x="285.75" y="122.5" width="44" height="44" stroke="#57595B" />
      <rect x="329.75" y="34.5" width="44" height="44" stroke="#343638" />
      <rect x="373.75" y="34.5" width="44" height="44" stroke="#343638" />
      <rect x="21.75" y="-9.5" width="44" height="44" stroke="#343638" />
      <rect x="65.75" y="-9.5" width="44" height="44" stroke="#343638" />
      <rect x="109.75" y="-9.5" width="44" height="44" stroke="#343638" />
      <rect x="153.75" y="-9.5" width="44" height="44" stroke="#343638" />
      <rect x="197.75" y="-9.5" width="44" height="44" stroke="#343638" />
      <rect x="241.75" y="-9.5" width="44" height="44" stroke="#343638" />
      <rect x="285.75" y="-9.5" width="44" height="44" stroke="#343638" />
      <rect x="329.75" y="-9.5" width="44" height="44" stroke="#343638" />
      <rect x="329.75" y="78.5" width="44" height="44" stroke="#343638" />
      <rect x="373.75" y="78.5" width="44" height="44" stroke="#343638" />
      <rect x="329.75" y="122.5" width="44" height="44" stroke="#343638" />
      <rect x="373.75" y="122.5" width="44" height="44" stroke="#343638" />
      <rect x="21.75" y="166.5" width="44" height="44" stroke="#343638" />
      <rect x="21.75" y="210.5" width="44" height="44" stroke="#343638" />
      <rect x="21.75" y="254.5" width="44" height="44" stroke="#343638" />
      <rect x="-22.25" y="166.5" width="44" height="44" stroke="#343638" />
      <rect x="-22.25" y="210.5" width="44" height="44" stroke="#343638" />
      <rect x="-22.25" y="254.5" width="44" height="44" stroke="#343638" />
      <rect x="65.75" y="166.5" width="44" height="44" stroke="#343638" />
      <rect x="65.75" y="210.5" width="44" height="44" stroke="#343638" />
      <rect x="65.75" y="254.5" width="44" height="44" stroke="#343638" />
      <rect x="109.75" y="166.5" width="44" height="44" stroke="#57595B" />
      <rect x="109.75" y="210.5" width="44" height="44" stroke="#343638" />
      <rect x="109.75" y="254.5" width="44" height="44" stroke="#343638" />
      <rect x="153.75" y="166.5" width="44" height="44" stroke="#343638" />
      <rect x="153.75" y="210.5" width="44" height="44" stroke="#343638" />
      <rect x="153.75" y="254.5" width="44" height="44" stroke="#343638" />
      <rect x="197.75" y="166.5" width="44" height="44" stroke="#343638" />
      <rect x="197.75" y="210.5" width="44" height="44" stroke="#57595B" />
      <rect x="197.75" y="254.5" width="44" height="44" stroke="#343638" />
      <rect x="241.75" y="166.5" width="44" height="44" stroke="#343638" />
      <rect x="241.75" y="210.5" width="44" height="44" stroke="#343638" />
      <rect x="241.75" y="254.5" width="44" height="44" stroke="#343638" />
      <rect x="285.75" y="166.5" width="44" height="44" stroke="#343638" />
      <rect x="285.75" y="210.5" width="44" height="44" stroke="#343638" />
      <rect x="285.75" y="254.5" width="44" height="44" stroke="#343638" />
      <rect x="329.75" y="166.5" width="44" height="44" stroke="#57595B" />
      <rect x="329.75" y="210.5" width="44" height="44" stroke="#343638" />
      <rect x="329.75" y="254.5" width="44" height="44" stroke="#343638" />
      <rect x="373.75" y="166.5" width="44" height="44" stroke="#343638" />
      <rect x="373.75" y="210.5" width="44" height="44" stroke="#343638" />
      <rect x="373.75" y="254.5" width="44" height="44" stroke="#343638" />
      <g filter="url(#filter1_d_1995_407)">
        <rect x="162" y="85.5" width="100" height="100" rx="50" fill="url(#paint6_linear_1995_407)" />
      </g>
      <rect x="110" y="35.5" width="50" height="50" rx="25" fill="url(#paint7_linear_1995_407)" />
      <g filter="url(#filter2_d_1995_407)">
        <rect x="280" y="31.5" width="35" height="35" rx="17.5" fill="url(#paint8_linear_1995_407)" />
      </g>
      <g filter="url(#filter3_d_1995_407)">
        <rect x="88" y="127.5" width="35" height="35" rx="17.5" fill="url(#paint9_linear_1995_407)" />
      </g>
      <rect x="286" y="114.5" width="60" height="60" rx="30" fill="url(#paint10_linear_1995_407)" />
      <g filter="url(#filter4_d_1995_407)">
        <rect x="247" y="193.5" width="50" height="50" rx="25" fill="url(#paint11_linear_1995_407)" />
      </g>
      <rect x="132" y="194.5" width="60" height="60" rx="30" fill="url(#paint12_linear_1995_407)" />
    </g>
  </g>
  <defs>
    <filter
      id="filter0_d_1995_407"
      x="-3.75"
      y="0.5"
      width="425"
      height="302"
      filterUnits="userSpaceOnUse"
      color-interpolation-filters="sRGB"
    >
      <feFlood flood-opacity="0" result="BackgroundImageFix" />
      <feColorMatrix
        in="SourceAlpha"
        type="matrix"
        values="0 0 0 0 0 0 0 0 0 0 0 0 0 0 0 0 0 0 127 0"
        result="hardAlpha"
      />
      <feOffset dy="4" />
      <feGaussianBlur stdDeviation="2" />
      <feComposite in2="hardAlpha" operator="out" />
      <feColorMatrix type="matrix" values="0 0 0 0 0 0 0 0 0 0 0 0 0 0 0 0 0 0 0.25 0" />
      <feBlend mode="normal" in2="BackgroundImageFix" result="effect1_dropShadow_1995_407" />
      <feBlend mode="normal" in="SourceGraphic" in2="effect1_dropShadow_1995_407" result="shape" />
    </filter>
    <filter
      id="filter1_d_1995_407"
      x="145.7"
      y="69.2"
      width="132.6"
      height="132.6"
      filterUnits="userSpaceOnUse"
      color-interpolation-filters="sRGB"
    >
      <feFlood flood-opacity="0" result="BackgroundImageFix" />
      <feColorMatrix
        in="SourceAlpha"
        type="matrix"
        values="0 0 0 0 0 0 0 0 0 0 0 0 0 0 0 0 0 0 127 0"
        result="hardAlpha"
      />
      <feMorphology radius="8" operator="dilate" in="SourceAlpha" result="effect1_dropShadow_1995_407" />
      <feOffset />
      <feGaussianBlur stdDeviation="4.15" />
      <feComposite in2="hardAlpha" operator="out" />
      <feColorMatrix type="matrix" values="0 0 0 0 0.964706 0 0 0 0 0.415686 0 0 0 0 0.6 0 0 0 0.25 0" />
      <feBlend mode="normal" in2="BackgroundImageFix" result="effect1_dropShadow_1995_407" />
      <feBlend mode="normal" in="SourceGraphic" in2="effect1_dropShadow_1995_407" result="shape" />
    </filter>
    <filter
      id="filter2_d_1995_407"
      x="265"
      y="16.5"
      width="65"
      height="65"
      filterUnits="userSpaceOnUse"
      color-interpolation-filters="sRGB"
    >
      <feFlood flood-opacity="0" result="BackgroundImageFix" />
      <feColorMatrix
        in="SourceAlpha"
        type="matrix"
        values="0 0 0 0 0 0 0 0 0 0 0 0 0 0 0 0 0 0 127 0"
        result="hardAlpha"
      />
      <feMorphology radius="8" operator="dilate" in="SourceAlpha" result="effect1_dropShadow_1995_407" />
      <feOffset />
      <feGaussianBlur stdDeviation="3.5" />
      <feComposite in2="hardAlpha" operator="out" />
      <feColorMatrix type="matrix" values="0 0 0 0 0.964706 0 0 0 0 0.415686 0 0 0 0 0.6 0 0 0 0.25 0" />
      <feBlend mode="normal" in2="BackgroundImageFix" result="effect1_dropShadow_1995_407" />
      <feBlend mode="normal" in="SourceGraphic" in2="effect1_dropShadow_1995_407" result="shape" />
    </filter>
    <filter
      id="filter3_d_1995_407"
      x="78"
      y="117.5"
      width="55"
      height="55"
      filterUnits="userSpaceOnUse"
      color-interpolation-filters="sRGB"
    >
      <feFlood flood-opacity="0" result="BackgroundImageFix" />
      <feColorMatrix
        in="SourceAlpha"
        type="matrix"
        values="0 0 0 0 0 0 0 0 0 0 0 0 0 0 0 0 0 0 127 0"
        result="hardAlpha"
      />
      <feMorphology radius="6" operator="dilate" in="SourceAlpha" result="effect1_dropShadow_1995_407" />
      <feOffset />
      <feGaussianBlur stdDeviation="2" />
      <feComposite in2="hardAlpha" operator="out" />
      <feColorMatrix type="matrix" values="0 0 0 0 0.964706 0 0 0 0 0.415686 0 0 0 0 0.6 0 0 0 0.25 0" />
      <feBlend mode="normal" in2="BackgroundImageFix" result="effect1_dropShadow_1995_407" />
      <feBlend mode="normal" in="SourceGraphic" in2="effect1_dropShadow_1995_407" result="shape" />
    </filter>
    <filter
      id="filter4_d_1995_407"
      x="237"
      y="183.5"
      width="70"
      height="70"
      filterUnits="userSpaceOnUse"
      color-interpolation-filters="sRGB"
    >
      <feFlood flood-opacity="0" result="BackgroundImageFix" />
      <feColorMatrix
        in="SourceAlpha"
        type="matrix"
        values="0 0 0 0 0 0 0 0 0 0 0 0 0 0 0 0 0 0 127 0"
        result="hardAlpha"
      />
      <feMorphology radius="6" operator="dilate" in="SourceAlpha" result="effect1_dropShadow_1995_407" />
      <feOffset />
      <feGaussianBlur stdDeviation="2" />
      <feComposite in2="hardAlpha" operator="out" />
      <feColorMatrix type="matrix" values="0 0 0 0 0.964706 0 0 0 0 0.415686 0 0 0 0 0.6 0 0 0 0.25 0" />
      <feBlend mode="normal" in2="BackgroundImageFix" result="effect1_dropShadow_1995_407" />
      <feBlend mode="normal" in="SourceGraphic" in2="effect1_dropShadow_1995_407" result="shape" />
    </filter>
    <linearGradient
      id="paint0_linear_1995_407"
      x1="205.366"
      y1="162.409"
      x2="205.366"
      y2="219.673"
      gradientUnits="userSpaceOnUse"
    >
      <stop stop-color="#D9D9D9" stop-opacity="0" />
      <stop offset="1" stop-color="white" />
    </linearGradient>
    <linearGradient
      id="paint1_linear_1995_407"
      x1="233.5"
      y1="165.237"
      x2="233.5"
      y2="222.501"
      gradientUnits="userSpaceOnUse"
    >
      <stop stop-color="#D9D9D9" stop-opacity="0" />
      <stop offset="1" stop-color="white" />
    </linearGradient>
    <linearGradient
      id="paint2_linear_1995_407"
      x1="172.606"
      y1="137.207"
      x2="172.606"
      y2="194.471"
      gradientUnits="userSpaceOnUse"
    >
      <stop stop-color="#D9D9D9" stop-opacity="0" />
      <stop offset="1" stop-color="white" />
    </linearGradient>
    <linearGradient
      id="paint3_linear_1995_407"
      x1="177.922"
      y1="98.8809"
      x2="177.922"
      y2="156.144"
      gradientUnits="userSpaceOnUse"
    >
      <stop stop-color="#D9D9D9" stop-opacity="0" />
      <stop offset="1" stop-color="white" />
    </linearGradient>
    <linearGradient
      id="paint4_linear_1995_407"
      x1="241.273"
      y1="114.618"
      x2="241.273"
      y2="197.587"
      gradientUnits="userSpaceOnUse"
    >
      <stop stop-color="#D9D9D9" stop-opacity="0" />
      <stop offset="1" stop-color="white" />
    </linearGradient>
    <linearGradient
      id="paint5_linear_1995_407"
      x1="228.5"
      y1="142.993"
      x2="228.5"
      y2="225.962"
      gradientUnits="userSpaceOnUse"
    >
      <stop stop-color="#D9D9D9" stop-opacity="0" />
      <stop offset="1" stop-color="white" />
    </linearGradient>
    <linearGradient id="paint6_linear_1995_407" x1="212" y1="85.5" x2="212" y2="185.5" gradientUnits="userSpaceOnUse">
      <stop stop-color="#F66A99" />
      <stop offset="1" stop-color="#6B2039" />
    </linearGradient>
    <linearGradient id="paint7_linear_1995_407" x1="135" y1="35.5" x2="135" y2="85.5" gradientUnits="userSpaceOnUse">
      <stop stop-color="#F66A99" />
      <stop offset="1" stop-color="#6B2039" />
    </linearGradient>
    <linearGradient
      id="paint8_linear_1995_407"
      x1="297.5"
      y1="31.5"
      x2="297.5"
      y2="66.5"
      gradientUnits="userSpaceOnUse"
    >
      <stop stop-color="#F66A99" />
      <stop offset="1" stop-color="#6B2039" />
    </linearGradient>
    <linearGradient
      id="paint9_linear_1995_407"
      x1="105.5"
      y1="127.5"
      x2="105.5"
      y2="162.5"
      gradientUnits="userSpaceOnUse"
    >
      <stop stop-color="#F66A99" />
      <stop offset="1" stop-color="#6B2039" />
    </linearGradient>
    <linearGradient id="paint10_linear_1995_407" x1="316" y1="114.5" x2="316" y2="174.5" gradientUnits="userSpaceOnUse">
      <stop stop-color="#F66A99" />
      <stop offset="1" stop-color="#6B2039" />
    </linearGradient>
    <linearGradient id="paint11_linear_1995_407" x1="272" y1="193.5" x2="272" y2="243.5" gradientUnits="userSpaceOnUse">
      <stop stop-color="#F66A99" />
      <stop offset="1" stop-color="#6B2039" />
    </linearGradient>
    <linearGradient id="paint12_linear_1995_407" x1="162" y1="194.5" x2="162" y2="254.5" gradientUnits="userSpaceOnUse">
      <stop stop-color="#F66A99" />
      <stop offset="1" stop-color="#6B2039" />
    </linearGradient>
    <clipPath id="clip0_1995_407">
      <path
        d="M0.25 50.5C0.25 22.8858 22.6358 0.5 50.25 0.5H367.25C394.864 0.5 417.25 22.8858 417.25 50.5V294.5H0.25V50.5Z"
        fill="white"
      />
    </clipPath>
  </defs>
</svg>
