<svg width="17" height="20" viewBox="0 0 17 20" fill="none" xmlns="http://www.w3.org/2000/svg">
  <path
    fill-rule="evenodd"
    clip-rule="evenodd"
    d="M1.44318 15.4502C1.60296 15.3571 1.79312 15.3314 1.9719 15.3785C2.15068 15.4255 2.30345 15.5417 2.39668 15.7013C3.16598 17.0204 4.34181 18.0176 5.79205 18.6651C5.87573 18.7024 5.95124 18.7558 6.01427 18.8223C6.0773 18.8888 6.12661 18.9671 6.15939 19.0527C6.19218 19.1382 6.20778 19.2294 6.20533 19.321C6.20287 19.4126 6.1824 19.5028 6.14508 19.5865C6.10776 19.6702 6.05432 19.7457 5.98782 19.8087C5.92132 19.8717 5.84305 19.921 5.75749 19.9538C5.67193 19.9866 5.58075 20.0022 5.48916 19.9998C5.39757 19.9973 5.30735 19.9768 5.22367 19.9395C3.53808 19.1869 2.12505 18.0046 1.19201 16.4046C1.14581 16.3254 1.11566 16.238 1.10328 16.1471C1.0909 16.0563 1.09653 15.964 1.11986 15.8753C1.14318 15.7867 1.18374 15.7035 1.23922 15.6306C1.29469 15.5576 1.364 15.4963 1.44318 15.4502ZM14.9242 2.4854C13.981 1.52167 12.6358 1.16725 11.3186 1.54121C11.143 1.58483 10.9572 1.55849 10.8007 1.46776C10.6441 1.37702 10.5289 1.22899 10.4794 1.05491C10.4299 0.880825 10.4499 0.694322 10.5354 0.534773C10.6208 0.375223 10.7649 0.255113 10.9372 0.199801C12.74 -0.313692 14.6163 0.176545 15.9214 1.50958C16.0479 1.64239 16.117 1.81965 16.1138 2.00302C16.1105 2.18639 16.0352 2.36111 15.9042 2.48937C15.7731 2.61764 15.5968 2.68914 15.4134 2.68839C15.23 2.68765 15.0543 2.61473 14.9242 2.4854ZM7.74649 1.91423C7.54742 1.57284 6.96695 1.36539 6.3781 1.70307C5.79019 2.03796 5.68693 2.63052 5.88322 2.96541L8.23207 6.99521C8.32244 7.15493 8.34623 7.34382 8.29831 7.52096C8.25039 7.6981 8.1346 7.84923 7.97603 7.9416C7.81747 8.03398 7.62889 8.06016 7.45116 8.01447C7.27343 7.96879 7.12085 7.85492 7.02648 7.69754L3.89529 2.3254C3.69622 1.984 3.11575 1.77656 2.52598 2.11424C1.939 2.44912 1.83574 3.04169 2.03109 3.37657L5.55577 9.42034C5.60195 9.4995 5.63208 9.58698 5.64445 9.67779C5.65682 9.76859 5.65118 9.86095 5.62786 9.94957C5.60453 10.0382 5.56398 10.1214 5.50852 10.1943C5.45306 10.2673 5.38377 10.3286 5.30461 10.3748C5.22545 10.4209 5.13797 10.4511 5.04716 10.4634C4.95635 10.4758 4.864 10.4702 4.77538 10.4469C4.68675 10.4235 4.60358 10.383 4.53063 10.3275C4.45767 10.2721 4.39636 10.2028 4.35018 10.1236L2.78273 7.43707C2.58365 7.09567 2.00318 6.88823 1.41434 7.22591C0.82643 7.56079 0.723173 8.15243 0.919454 8.48824L4.4432 14.532C5.93996 17.0985 9.63394 17.9311 12.7651 16.1413C15.8963 14.3515 17.008 10.7794 15.5149 8.21847L13.1651 4.1896C12.9661 3.8482 12.3856 3.64076 11.7968 3.97751C11.2088 4.31332 11.1056 4.90496 11.3019 5.24077L12.8675 7.92638C12.9141 8.00597 12.9444 8.094 12.9568 8.18539C12.9691 8.27678 12.9632 8.36972 12.9394 8.45882C12.9156 8.54792 12.8744 8.63142 12.8182 8.70449C12.7619 8.77756 12.6917 8.83875 12.6116 8.88452C11.1763 9.70314 10.7363 11.2892 11.3651 12.3664C11.4113 12.4456 11.4414 12.5331 11.4538 12.6239C11.4662 12.7147 11.4605 12.807 11.4372 12.8956C11.4139 12.9843 11.3733 13.0674 11.3179 13.1404C11.2624 13.2133 11.1931 13.2747 11.114 13.3208C11.0348 13.367 10.9473 13.3972 10.8565 13.4095C10.7657 13.4219 10.6734 13.4162 10.5847 13.3929C10.4961 13.3696 10.4129 13.3291 10.34 13.2736C10.267 13.2181 10.2057 13.1488 10.1595 13.0697C9.31022 11.6139 9.65348 9.86035 10.7502 8.62127C11.0572 8.27522 11.1614 7.77103 10.9288 7.37102L7.74649 1.91423Z"
    fill="#FAFAFA"
  />
</svg>
