<svg width="22" height="17" viewBox="0 0 22 17" fill="none" xmlns="http://www.w3.org/2000/svg">
  <path
    d="M22.0895 2.64951C21.8268 1.62304 21.0526 0.814621 20.0697 0.540272C18.288 0.041748 11.1438 0.041748 11.1438 0.041748C11.1438 0.041748 3.99969 0.041748 2.218 0.540272C1.23506 0.814665 0.460907 1.62304 0.198157 2.64951C-0.279236 4.51007 -0.279236 8.39192 -0.279236 8.39192C-0.279236 8.39192 -0.279236 12.2737 0.198157 14.1343C0.460907 15.1608 1.23506 15.9356 2.218 16.2099C3.99969 16.7084 11.1438 16.7084 11.1438 16.7084C11.1438 16.7084 18.288 16.7084 20.0697 16.2099C21.0526 15.9356 21.8268 15.1608 22.0895 14.1343C22.5669 12.2737 22.5669 8.39192 22.5669 8.39192C22.5669 8.39192 22.5669 4.51007 22.0895 2.64951ZM8.80727 11.9163V4.86749L14.7784 8.392L8.80727 11.9163Z"
    fill="white"
  />
</svg>
